<svg width="25" height="24" viewBox="0 0 25 24" fill="none" xmlns="http://www.w3.org/2000/svg">
<path d="M22.8402 10.6424L22.8327 10.6392L2.81328 2.33573C2.6449 2.26525 2.46167 2.23761 2.27999 2.25528C2.09831 2.27295 1.92384 2.33537 1.77219 2.43698C1.61197 2.54196 1.48036 2.68513 1.38921 2.85361C1.29805 3.02208 1.25022 3.21058 1.25 3.40213V8.7126C1.25009 8.97447 1.34153 9.2281 1.50856 9.42978C1.67558 9.63147 1.90774 9.76856 2.165 9.81745L13.0836 11.8364C13.1265 11.8445 13.1652 11.8673 13.1931 11.901C13.2209 11.9346 13.2362 11.9769 13.2362 12.0206C13.2362 12.0642 13.2209 12.1065 13.1931 12.1402C13.1652 12.1738 13.1265 12.1967 13.0836 12.2048L2.16547 14.2237C1.90828 14.2725 1.67614 14.4094 1.50903 14.6109C1.34193 14.8124 1.25033 15.0658 1.25 15.3276V20.639C1.24988 20.8219 1.29517 21.002 1.38181 21.1631C1.46845 21.3242 1.59373 21.4612 1.74641 21.562C1.93006 21.684 2.1456 21.7492 2.36609 21.7495C2.51938 21.7493 2.6711 21.7186 2.81234 21.659L22.8313 13.4029L22.8402 13.3987C23.1096 13.2829 23.3392 13.0906 23.5006 12.8457C23.6619 12.6007 23.7479 12.3139 23.7479 12.0206C23.7479 11.7273 23.6619 11.4404 23.5006 11.1955C23.3392 10.9505 23.1096 10.7583 22.8402 10.6424V10.6424Z" fill="#1D4ED8"/>
</svg>
