<?xml version="1.0" encoding="utf-8"?>
<!-- Generator: Adobe Illustrator 25.4.1, SVG Export Plug-In . SVG Version: 6.00 Build 0)  -->
<svg version="1.1" id="Layer_1" xmlns="http://www.w3.org/2000/svg" xmlns:xlink="http://www.w3.org/1999/xlink" x="0px" y="0px"
	 viewBox="0 0 80 80" style="enable-background:new 0 0 80 80;" xml:space="preserve">
<style type="text/css">
	.st0{fill-rule:evenodd;clip-rule:evenodd;fill:#FFFFFF;}
</style>
<path class="st0" d="M38.8,0.3C38.3,0.7,33.2,5,20,17.2c-9.9,9-18.3,16.7-18.4,16.9c-0.7,0.7-1,1.6-1,2.6c0,1.2,0.3,1.9,1.4,3.1
	c1.2,1.2,2.3,1.7,3.3,1.7c1.4,0,1.9-0.2,3.7-1.7l1.6-1.4v17.9v17.9l0.3,0.7c0.5,0.9,1,1.6,1.9,1.9c0.7,0.3,1,0.3,8.5,0.3
	s8,0,8.5-0.3c0.9-0.3,1.6-1,1.9-1.9l0.3-0.7V61.6V48.9h8.9h9.2v12.9c0,12.9,0,12.9,0.3,13.6c0.3,0.9,1,1.4,1.9,1.9
	c0.5,0.3,1.2,0.3,9,0.3s8.4,0,9-0.3c0.9-0.3,1.6-1.2,2.1-2.1c0.2-0.7,0.2-0.7,0.2-18.3V39.3l0.9,0.7c0.9,0.7,0.9,0.7,1.7,0.7
	c1.2,0,2.1-0.5,3.5-1.9s1.7-2.3,1.7-3.7c0-1.9,1.2-0.9-19.1-18.4C51.3,7.8,42.8,0.5,42.4,0.3c-0.3-0.2-1-0.3-1.9-0.3
	C39.7,0,39.5,0,38.8,0.3z"/>
</svg>
