<?xml version="1.0" encoding="utf-8"?>
<!-- Generator: Adobe Illustrator 25.4.1, SVG Export Plug-In . SVG Version: 6.00 Build 0)  -->
<svg version="1.1" id="Layer_1" xmlns="http://www.w3.org/2000/svg" xmlns:xlink="http://www.w3.org/1999/xlink" x="0px" y="0px"
	 viewBox="0 0 80 80" style="enable-background:new 0 0 80 80;" xml:space="preserve">
<style type="text/css">
	.st0{fill-rule:evenodd;clip-rule:evenodd;fill:#FFFFFF;}
</style>
<g>
	
		<image style="overflow:visible;opacity:0.85;" width="85" height="85" xlink:href="9BE6C629.png"  transform="matrix(1 0 0 1 -5.0079 2.9921)">
	</image>
	<g>
		<g>
			<path class="st0" d="M27,15.4C22.9,20.1,16.8,30,15.3,34.1c-0.6,1.9-0.7,5.1,0,7.4c1.1,3.8,4.3,7,8.2,8.1l1.5,0.4v-1.5
				c0-2.9,1.2-7,3.3-11.2c1.2-2.4,4.8-8.5,6-10.2c0.8-1,0.8-1.1,0.3-2c-0.9-1.4-7-10.1-7.4-10.1C27.4,14.9,27.2,15,27,15.4z
				 M45.1,20.3c-5.8,7.5-15.6,18.2-15.1,28.6c0.1,1.9,0.3,3.4,0.7,4.6c1.8,5.2,6.4,9.6,11.9,11.1c2.1,0.6,6.9,0.7,9.1,0.2
				c5.1-1.2,10.1-5.2,11.9-9.7c1.3-3.2,1.8-7.9,1-10.3c-1.3-4-4-9.2-8-15.1c-1.6-2.3-5.2-7.4-5.9-8.1c-0.2-0.2-0.9-1.1-1.7-2.2
				c-0.8-1-1.5-1.8-1.6-1.8C47.4,17.4,46.3,18.7,45.1,20.3z M58.2,43.8c1.7,2.3,2,5.5,0.8,8.4c-1.3,2.9-4.3,4.9-7.4,4.9h-1.2l2-2.1
				c3-3.2,4.5-6.6,4.5-10.3c0-1,0.1-1.8,0.3-1.8C57.4,42.8,57.9,43.3,58.2,43.8z"/>
		</g>
	</g>
</g>
</svg>
