<?xml version="1.0" encoding="utf-8"?>
<!-- Generator: Adobe Illustrator 25.4.1, SVG Export Plug-In . SVG Version: 6.00 Build 0)  -->
<svg version="1.1" id="Layer_1" xmlns="http://www.w3.org/2000/svg" xmlns:xlink="http://www.w3.org/1999/xlink" x="0px" y="0px"
	 viewBox="0 0 80 80" style="enable-background:new 0 0 80 80;" xml:space="preserve">
<style type="text/css">
	.st0{fill-rule:evenodd;clip-rule:evenodd;fill:#FFFFFF;}
</style>
<path class="st0" d="M28.5,5.7c-0.5,0.7-0.9,1.7-0.9,3.1v1h-6.2h-6.2l-0.7,0.7l-0.7,0.7v4.1v4.1h32.8h32.8v-4.3v-4.3l-0.7-0.5
	l-0.7-0.5H72h-6.2V8.3c0-1.4,0-1.7-0.5-2.2c-0.5-0.7-0.7-0.7-1.9-0.7c-1,0-1.4,0-1.9,0.7c-0.5,0.5-0.7,0.9-0.7,2.2L60.7,10H55h-5.7
	V8.3c0-1.5,0-1.7-0.7-2.2c-0.5-0.5-0.9-0.5-1.9-0.5c-1,0-1.2,0.2-1.7,0.5c-0.5,0.7-0.9,1.7-0.9,3.1v1h-5.7h-5.7V8.5
	c0-1.5,0-1.7-0.5-2.2c-0.5-0.5-0.7-0.7-1.9-0.7C29.2,5.2,28.9,5.4,28.5,5.7z M13.8,24.1c0,1.4-1,8.8-1.2,10
	c-0.2,0.5-0.3,1.4-0.5,1.9c-0.9,3.6-3.3,9.6-5,12.6c-1.9,3.1-4.8,6.9-6.4,8.4C0.2,57.5,0,57.7,0,58.9c0,1.2,0,1.4,0.7,1.9l0.7,0.5
	h31.5h31.5l1.9-1.9c1.7-1.9,4.5-5.3,4.5-5.8c0-0.2,0-0.2,0.2-0.3c0.2-0.2,1.5-2.4,2.6-4.5c2.4-4.8,3.8-9.3,5-15
	c0.5-2.8,0.7-4.6,0.9-7.4l0.2-2.4H46.6C28.5,24,13.8,24,13.8,24.1z M78.7,47.7c-0.9,1.9-1.9,4-2.6,5.3c-0.9,1.5-3.3,5.3-4,5.8
	c-0.2,0.2-0.5,0.5-0.5,0.5c0,0.2-1.9,2.2-3.1,3.4c-1.5,1.5-2.1,1.9-3.4,2.4L64,65.7H38.9H13.8v4v4l0.7,0.7l0.7,0.7h31.5h31.5
	l0.5-0.7l0.5-0.7V59.9V46.1L78.7,47.7z"/>
</svg>
