<svg width="380" height="713" viewBox="0 0 380 713" fill="none" xmlns="http://www.w3.org/2000/svg">
<path fill-rule="evenodd" clip-rule="evenodd" d="M98.9282 5.27238L42.8636 1.24841C22.7858 -0.192649 12.747 -0.913177 6.37348 5.01925C0 10.9517 0 21.0164 0 41.1458V673C0 691.856 0 701.284 5.85786 707.142C11.7157 713 21.1438 713 40 713H340C358.856 713 368.284 713 374.142 707.142C380 701.284 380 691.856 380 673V62.6779C380 45.0222 380 36.1944 374.64 30.4354C369.279 24.6765 360.474 24.0445 342.864 22.7806L137.602 8.04811L123.445 21.1056C121.415 22.9779 118.124 22.9779 116.094 21.1056L98.9282 5.27238Z" fill="#F8F8F8"/>
<g opacity="0.35">
<mask id="path-2-inside-1_4110_63" fill="white">
<path fill-rule="evenodd" clip-rule="evenodd" d="M94.2268 25.4547L60.8851 23.0436C40.7983 21.591 30.7548 20.8647 24.3774 26.7976C18 32.7305 18 42.8001 18 62.9394V647.053C18 665.91 18 675.338 23.8579 681.195C29.7157 687.053 39.1438 687.053 58 687.053H322C340.856 687.053 350.284 687.053 356.142 681.195C362 675.338 362 665.909 362 647.053V82.0307C362 64.3837 362 55.5602 356.643 49.8022C351.287 44.0441 342.486 43.4077 324.885 42.1348L144.386 29.082L124.973 46.8636C122.937 48.7288 119.635 48.7288 117.599 46.8636L94.2268 25.4547Z"/>
</mask>
<path d="M60.8851 23.0436L60.849 23.5423L60.8851 23.0436ZM94.2268 25.4547L94.5645 25.086L94.4363 24.9686L94.2629 24.956L94.2268 25.4547ZM23.8579 681.195L23.5043 681.549L23.5043 681.549L23.8579 681.195ZM356.142 681.195L356.496 681.549L356.496 681.549L356.142 681.195ZM356.643 49.8022L357.009 49.4616L357.009 49.4616L356.643 49.8022ZM324.885 42.1348L324.849 42.6335L324.849 42.6335L324.885 42.1348ZM144.386 29.082L144.422 28.5833L144.207 28.5677L144.048 28.7133L144.386 29.082ZM124.973 46.8636L124.635 46.4949L124.635 46.4949L124.973 46.8636ZM117.599 46.8636L117.937 46.4949L117.937 46.4949L117.599 46.8636ZM60.9211 22.5449C57.5121 22.2984 54.3888 22.0725 51.5234 21.8966L51.4622 22.8947C54.3211 23.0702 57.4386 23.2957 60.849 23.5423L60.9211 22.5449ZM32.6328 22.2632C29.1404 22.9754 26.3579 24.2723 24.0369 26.4315L24.718 27.1637C26.8779 25.1543 29.4813 23.9264 32.8326 23.243L32.6328 22.2632ZM24.0369 26.4315C21.7158 28.5908 20.2216 31.2725 19.2594 34.7045L20.2222 34.9744C21.1456 31.6811 22.5581 29.1731 24.718 27.1637L24.0369 26.4315ZM17.5312 53.5194C17.5 56.39 17.5 59.5214 17.5 62.9394H18.5C18.5 59.52 18.5 56.3944 18.5312 53.5303L17.5312 53.5194ZM17.5 62.9394V70.6251H18.5V62.9394H17.5ZM17.5 85.9965V101.368H18.5V85.9965H17.5ZM17.5 116.739V132.111H18.5V116.739H17.5ZM17.5 147.482V162.854H18.5V147.482H17.5ZM17.5 178.225V193.596H18.5V178.225H17.5ZM17.5 208.968V224.339H18.5V208.968H17.5ZM17.5 239.711V255.082H18.5V239.711H17.5ZM17.5 270.454V285.825H18.5V270.454H17.5ZM17.5 301.196V316.568H18.5V301.196H17.5ZM17.5 331.939V347.311H18.5V331.939H17.5ZM17.5 362.682V378.054H18.5V362.682H17.5ZM17.5 393.425V408.796H18.5V393.425H17.5ZM17.5 424.168V439.539H18.5V424.168H17.5ZM17.5 454.911V470.282H18.5V454.911H17.5ZM17.5 485.653V501.025H18.5V485.653H17.5ZM17.5 516.396V531.768H18.5V516.396H17.5ZM17.5 547.139V562.511H18.5V547.139H17.5ZM17.5 577.882V593.253H18.5V577.882H17.5ZM17.5 608.625V623.996H18.5V608.625H17.5ZM17.5 639.368V647.053H18.5V639.368H17.5ZM17.5 647.053C17.5 650.275 17.5 653.224 17.5293 655.928L18.5292 655.917C18.5 653.22 18.5 650.276 18.5 647.053H17.5ZM19.1395 673.661C20.0243 676.881 21.3914 679.436 23.5043 681.549L24.2114 680.842C22.2442 678.875 20.9521 676.484 20.1038 673.396L19.1395 673.661ZM23.5043 681.549C25.6172 683.662 28.1722 685.029 31.392 685.914L31.657 684.95C28.5698 684.101 26.1787 682.809 24.2114 680.842L23.5043 681.549ZM49.1251 687.524C51.829 687.553 54.7786 687.553 58 687.553V686.553C54.7773 686.553 51.8334 686.553 49.1359 686.524L49.1251 687.524ZM58 687.553H65.3333V686.553H58V687.553ZM80 687.553H94.6667V686.553H80V687.553ZM109.333 687.553H124V686.553H109.333V687.553ZM138.667 687.553H153.333V686.553H138.667V687.553ZM168 687.553H182.667V686.553H168V687.553ZM197.333 687.553H212V686.553H197.333V687.553ZM226.667 687.553H241.333V686.553H226.667V687.553ZM256 687.553H270.667V686.553H256V687.553ZM285.333 687.553H300V686.553H285.333V687.553ZM314.667 687.553H322V686.553H314.667V687.553ZM322 687.553C325.221 687.553 328.171 687.553 330.875 687.524L330.864 686.524C328.167 686.553 325.223 686.553 322 686.553V687.553ZM348.608 685.914C351.828 685.029 354.383 683.662 356.496 681.549L355.789 680.842C353.821 682.809 351.43 684.101 348.343 684.95L348.608 685.914ZM356.496 681.549C358.609 679.436 359.976 676.881 360.86 673.661L359.896 673.396C359.048 676.484 357.756 678.875 355.789 680.842L356.496 681.549ZM362.471 655.928C362.5 653.224 362.5 650.275 362.5 647.053H361.5C361.5 650.276 361.5 653.22 361.471 655.917L362.471 655.928ZM362.5 647.053V639.619H361.5V647.053H362.5ZM362.5 624.75V609.881H361.5V624.75H362.5ZM362.5 595.012V580.143H361.5V595.012H362.5ZM362.5 565.274V550.405H361.5V565.274H362.5ZM362.5 535.536V520.667H361.5V535.536H362.5ZM362.5 505.798V490.929H361.5V505.798H362.5ZM362.5 476.06V461.191H361.5V476.06H362.5ZM362.5 446.322V431.453H361.5V446.322H362.5ZM362.5 416.584V401.715H361.5V416.584H362.5ZM362.5 386.846V371.977H361.5V386.846H362.5ZM362.5 357.107V342.238H361.5V357.107H362.5ZM362.5 327.369V312.5H361.5V327.369H362.5ZM362.5 297.631V282.762H361.5V297.631H362.5ZM362.5 267.893V253.024H361.5V267.893H362.5ZM362.5 238.155V223.286H361.5V238.155H362.5ZM362.5 208.417V193.548H361.5V208.417H362.5ZM362.5 178.679V163.81H361.5V178.679H362.5ZM362.5 148.941V134.072H361.5V148.941H362.5ZM362.5 119.203V104.334H361.5V119.203H362.5ZM362.5 89.4652V82.0307H361.5V89.4652H362.5ZM362.5 82.0307C362.5 78.9971 362.5 76.2209 362.473 73.676L361.473 73.6867C361.5 76.2252 361.5 78.9958 361.5 82.0307H362.5ZM360.981 56.9753C360.171 53.9537 358.926 51.5214 357.009 49.4616L356.277 50.1427C358.062 52.0614 359.239 54.3391 360.015 57.2341L360.981 56.9753ZM357.009 49.4616C355.093 47.4018 352.757 45.9841 349.802 44.9585L349.474 45.9032C352.305 46.8859 354.492 48.2241 356.277 50.1427L357.009 49.4616ZM333.252 42.2659C330.716 42.0552 327.947 41.8549 324.921 41.6361L324.849 42.6335C327.876 42.8524 330.639 43.0523 333.169 43.2625L333.252 42.2659ZM324.921 41.6361L317.4 41.0923L317.328 42.0897L324.849 42.6335L324.921 41.6361ZM302.359 40.0045L287.317 38.9168L287.245 39.9142L302.287 41.0019L302.359 40.0045ZM272.275 37.829L257.234 36.7413L257.162 37.7387L272.203 38.8264L272.275 37.829ZM242.192 35.6536L227.151 34.5658L227.078 35.5632L242.12 36.651L242.192 35.6536ZM212.109 33.4781L197.067 32.3903L196.995 33.3877L212.037 34.4755L212.109 33.4781ZM182.026 31.3026L166.984 30.2149L166.912 31.2123L181.954 32.3L182.026 31.3026ZM151.942 29.1271L144.422 28.5833L144.35 29.5807L151.87 30.1245L151.942 29.1271ZM144.048 28.7133L139.195 33.1587L139.87 33.8961L144.723 29.4507L144.048 28.7133ZM129.489 42.0495L124.635 46.4949L125.311 47.2323L130.164 42.7869L129.489 42.0495ZM124.635 46.4949C122.79 48.1851 119.782 48.1851 117.937 46.4949L117.261 47.2323C119.489 49.2726 123.083 49.2726 125.311 47.2323L124.635 46.4949ZM117.937 46.4949L112.094 41.1427L111.418 41.8801L117.261 47.2323L117.937 46.4949ZM100.408 30.4382L94.5645 25.086L93.8891 25.8234L99.7322 31.1756L100.408 30.4382ZM94.2629 24.956L85.9274 24.3532L85.8553 25.3506L94.1907 25.9534L94.2629 24.956ZM69.2566 23.1477L60.9211 22.5449L60.849 23.5423L69.1844 24.1451L69.2566 23.1477ZM60.8851 23.0436L60.8129 24.041L60.8851 23.0436ZM94.2268 25.4547L94.9023 24.7173L94.6458 24.4824L94.2989 24.4573L94.2268 25.4547ZM23.8579 681.195L23.1508 681.903L23.1508 681.903L23.8579 681.195ZM356.142 681.195L356.849 681.903L356.849 681.903L356.142 681.195ZM356.643 49.8022L357.375 49.121L357.375 49.121L356.643 49.8022ZM324.885 42.1348L324.813 43.1322L324.813 43.1322L324.885 42.1348ZM144.386 29.082L144.458 28.0846L144.028 28.0535L143.71 28.3446L144.386 29.082ZM124.973 46.8636L124.298 46.1262L124.298 46.1262L124.973 46.8636ZM117.599 46.8636L118.275 46.1262L118.275 46.1262L117.599 46.8636ZM60.9572 22.0462C57.5488 21.7997 54.4227 21.5736 51.5541 21.3975L51.4315 23.3938C54.2872 23.5691 57.4018 23.7943 60.8129 24.041L60.9572 22.0462ZM32.5329 21.7733C28.9699 22.4998 26.0978 23.8313 23.6963 26.0654L25.0586 27.5298C27.1379 25.5953 29.6517 24.4019 32.9325 23.7329L32.5329 21.7733ZM23.6963 26.0654C21.2947 28.2996 19.7596 31.0681 18.7779 34.5695L20.7037 35.1094C21.6076 31.8854 22.9792 29.4642 25.0586 27.5298L23.6963 26.0654ZM17.0313 53.514C17 56.3878 17 59.5221 17 62.9394H19C19 59.5193 19 56.3966 19.0311 53.5357L17.0313 53.514ZM17 62.9394V70.6251H19V62.9394H17ZM17 85.9965V101.368H19V85.9965H17ZM17 116.739V132.111H19V116.739H17ZM17 147.482V162.854H19V147.482H17ZM17 178.225V193.596H19V178.225H17ZM17 208.968V224.339H19V208.968H17ZM17 239.711V255.082H19V239.711H17ZM17 270.454V285.825H19V270.454H17ZM17 301.196V316.568H19V301.196H17ZM17 331.939V347.311H19V331.939H17ZM17 362.682V378.054H19V362.682H17ZM17 393.425V408.796H19V393.425H17ZM17 424.168V439.539H19V424.168H17ZM17 454.911V470.282H19V454.911H17ZM17 485.653V501.025H19V485.653H17ZM17 516.396V531.768H19V516.396H17ZM17 547.139V562.511H19V547.139H17ZM17 577.882V593.253H19V577.882H17ZM17 608.625V623.996H19V608.625H17ZM17 639.368V647.053H19V639.368H17ZM17 647.053C17 650.274 17 653.227 17.0293 655.934L19.0292 655.912C19 653.218 19 650.277 19 647.053H17ZM18.6574 673.794C19.5604 677.08 20.9651 679.717 23.1508 681.903L24.565 680.488C22.6705 678.594 21.416 676.285 20.5859 673.264L18.6574 673.794ZM23.1508 681.903C25.3364 684.088 27.9733 685.493 31.2595 686.396L31.7895 684.467C28.7686 683.637 26.4594 682.383 24.565 680.488L23.1508 681.903ZM49.1197 688.024C51.8268 688.053 54.7793 688.053 58 688.053V686.053C54.7766 686.053 51.8356 686.053 49.1413 686.024L49.1197 688.024ZM58 688.053H65.3333V686.053H58V688.053ZM80 688.053H94.6667V686.053H80V688.053ZM109.333 688.053H124V686.053H109.333V688.053ZM138.667 688.053H153.333V686.053H138.667V688.053ZM168 688.053H182.667V686.053H168V688.053ZM197.333 688.053H212V686.053H197.333V688.053ZM226.667 688.053H241.333V686.053H226.667V688.053ZM256 688.053H270.667V686.053H256V688.053ZM285.333 688.053H300V686.053H285.333V688.053ZM314.667 688.053H322V686.053H314.667V688.053ZM322 688.053C325.221 688.053 328.173 688.053 330.88 688.024L330.859 686.024C328.164 686.053 325.223 686.053 322 686.053V688.053ZM348.74 686.396C352.027 685.493 354.664 684.088 356.849 681.903L355.435 680.488C353.541 682.383 351.231 683.637 348.211 684.467L348.74 686.396ZM356.849 681.903C359.035 679.717 360.44 677.08 361.343 673.794L359.414 673.264C358.584 676.285 357.329 678.594 355.435 680.488L356.849 681.903ZM362.971 655.934C363 653.227 363 650.274 363 647.053H361C361 650.277 361 653.218 360.971 655.912L362.971 655.934ZM363 647.053V639.619H361V647.053H363ZM363 624.75V609.881H361V624.75H363ZM363 595.012V580.143H361V595.012H363ZM363 565.274V550.405H361V565.274H363ZM363 535.536V520.667H361V535.536H363ZM363 505.798V490.929H361V505.798H363ZM363 476.06V461.191H361V476.06H363ZM363 446.322V431.453H361V446.322H363ZM363 416.584V401.715H361V416.584H363ZM363 386.846V371.977H361V386.846H363ZM363 357.107V342.238H361V357.107H363ZM363 327.369V312.5H361V327.369H363ZM363 297.631V282.762H361V297.631H363ZM363 267.893V253.024H361V267.893H363ZM363 238.155V223.286H361V238.155H363ZM363 208.417V193.548H361V208.417H363ZM363 178.679V163.81H361V178.679H363ZM363 148.941V134.072H361V148.941H363ZM363 119.203V104.334H361V119.203H363ZM363 89.4652V82.0307H361V89.4652H363ZM363 82.0307C363 78.9978 363 76.2188 362.973 73.6706L360.973 73.692C361 76.2274 361 78.9951 361 82.0307H363ZM361.464 56.8458C360.637 53.761 359.357 51.2514 357.375 49.121L355.911 50.4833C357.63 52.3313 358.773 54.5318 359.532 57.3636L361.464 56.8458ZM357.375 49.121C355.394 46.9907 352.983 45.5332 349.966 44.4861L349.31 46.3756C352.08 47.3368 354.192 48.6352 355.911 50.4833L357.375 49.121ZM333.294 41.7676C330.754 41.5566 327.982 41.3562 324.957 41.1374L324.813 43.1322C327.841 43.3512 330.601 43.5508 333.128 43.7608L333.294 41.7676ZM324.957 41.1374L317.436 40.5936L317.292 42.5884L324.813 43.1322L324.957 41.1374ZM302.395 39.5058L287.353 38.4181L287.209 40.4129L302.251 41.5006L302.395 39.5058ZM272.312 37.3304L257.27 36.2426L257.126 38.2374L272.167 39.3251L272.312 37.3304ZM242.228 35.1549L227.187 34.0671L227.042 36.0619L242.084 37.1497L242.228 35.1549ZM212.145 32.9794L197.103 31.8917L196.959 33.8864L212.001 34.9742L212.145 32.9794ZM182.062 30.8039L167.02 29.7162L166.876 31.711L181.918 32.7987L182.062 30.8039ZM151.979 28.6284L144.458 28.0846L144.313 30.0794L151.834 30.6232L151.979 28.6284ZM143.71 28.3446L138.857 32.79L140.208 34.2648L145.061 29.8194L143.71 28.3446ZM129.151 41.6808L124.298 46.1262L125.649 47.601L130.502 43.1556L129.151 41.6808ZM124.298 46.1262C122.644 47.6413 119.929 47.6413 118.275 46.1262L116.924 47.601C119.342 49.8164 123.23 49.8164 125.649 47.601L124.298 46.1262ZM118.275 46.1262L112.432 40.774L111.081 42.2488L116.924 47.601L118.275 46.1262ZM100.745 30.0695L94.9023 24.7173L93.5513 26.1921L99.3944 31.5443L100.745 30.0695ZM94.2989 24.4573L85.9635 23.8545L85.8192 25.8493L94.1547 26.4521L94.2989 24.4573ZM69.2926 22.649L60.9572 22.0462L60.8129 24.041L69.1484 24.6438L69.2926 22.649Z" fill="url(#paint0_linear_4110_63)" mask="url(#path-2-inside-1_4110_63)"/>
</g>
<defs>
<linearGradient id="paint0_linear_4110_63" x1="63.1971" y1="97.8819" x2="409.216" y2="327.24" gradientUnits="userSpaceOnUse">
<stop stop-color="#818EB3"/>
<stop offset="1" stop-color="#121929"/>
</linearGradient>
</defs>
</svg>
