<svg width="380" height="684" viewBox="0 0 380 684" fill="none" xmlns="http://www.w3.org/2000/svg">
<path d="M0 39.9995C0 21.1433 0 11.7152 5.85787 5.85735C11.7157 -0.000520276 21.1438 -0.000509584 40 -0.0004882L340 -0.000147978C358.856 -0.000126593 368.284 -0.000115901 374.142 5.85775C380 11.7156 380 21.1437 380 39.9999V644C380 662.856 380 672.284 374.142 678.142C368.284 684 358.856 684 340 684H40C21.1438 684 11.7157 684 5.85786 678.142C0 672.284 0 662.856 0 644V39.9995Z" fill="#F8F8F8"/>
<g opacity="0.35">
<mask id="path-2-inside-1_4111_64" fill="white">
<path d="M18 57.4669C18 38.6106 18 29.1825 23.8579 23.3247C29.7157 17.4668 39.1438 17.4668 58 17.4668H322C340.856 17.4668 350.284 17.4668 356.142 23.3247C362 29.1825 362 38.6106 362 57.4668V622.854C362 641.711 362 651.139 356.142 656.997C350.284 662.854 340.856 662.854 322 662.854H58C39.1438 662.854 29.7157 662.854 23.8579 656.997C18 651.139 18 641.711 18 622.854V57.4669Z"/>
</mask>
<path d="M23.8579 656.997L24.2114 656.643L23.8579 656.997ZM356.142 656.997L356.496 657.35L356.142 656.997ZM356.142 23.3247L355.789 23.6782L356.142 23.3247ZM58 662.354C54.7773 662.354 51.8334 662.354 49.1359 662.325L49.1251 663.325C51.829 663.354 54.7786 663.354 58 663.354V662.354ZM31.657 660.751C28.5698 659.902 26.1787 658.61 24.2114 656.643L23.5043 657.35C25.6172 659.463 28.1722 660.83 31.392 661.715L31.657 660.751ZM24.2114 656.643C22.2442 654.676 20.9521 652.285 20.1038 649.197L19.1395 649.462C20.0243 652.682 21.3914 655.237 23.5043 657.35L24.2114 656.643ZM18.5292 631.719C18.5 629.021 18.5 626.077 18.5 622.854H17.5C17.5 626.076 17.5 629.025 17.5293 631.729L18.5292 631.719ZM18.5 622.854V615.415H17.5V622.854H18.5ZM18.5 600.536V585.658H17.5V600.536H18.5ZM18.5 570.779V555.901H17.5V570.779H18.5ZM18.5 541.022V526.143H17.5V541.022H18.5ZM18.5 511.265V496.386H17.5V511.265H18.5ZM18.5 481.508V466.629H17.5V481.508H18.5ZM18.5 451.75V436.872H17.5V451.75H18.5ZM18.5 421.993V407.114H17.5V421.993H18.5ZM18.5 392.236V377.357H17.5V392.236H18.5ZM18.5 362.479V347.6H17.5V362.479H18.5ZM18.5 332.721V317.843H17.5V332.721H18.5ZM18.5 302.964V288.085H17.5V302.964H18.5ZM18.5 273.207V258.328H17.5V273.207H18.5ZM18.5 243.45V228.571H17.5V243.45H18.5ZM18.5 213.692V198.814H17.5V213.692H18.5ZM18.5 183.935V169.056H17.5V183.935H18.5ZM18.5 154.178V139.299H17.5V154.178H18.5ZM18.5 124.42V109.542H17.5V124.42H18.5ZM18.5 94.6633V79.7847H17.5V94.6633H18.5ZM18.5 64.9061V57.4669H17.5V64.9061H18.5ZM18.5 57.4669C18.5 54.2441 18.5 51.3002 18.5292 48.6027L17.5293 48.5919C17.5 51.2958 17.5 54.2455 17.5 57.4669H18.5ZM20.1038 31.1238C20.9521 28.0366 22.2442 25.6455 24.2114 23.6782L23.5043 22.9711C21.3914 25.084 20.0243 27.639 19.1395 30.8588L20.1038 31.1238ZM24.2114 23.6782C26.1787 21.711 28.5698 20.4189 31.657 19.5706L31.392 18.6063C28.1722 19.4911 25.6172 20.8582 23.5043 22.9711L24.2114 23.6782ZM49.1359 17.996C51.8334 17.9668 54.7773 17.9668 58 17.9668V16.9668C54.7786 16.9668 51.829 16.9668 49.1251 16.9961L49.1359 17.996ZM58 17.9668H65.3333V16.9668H58V17.9668ZM80 17.9668H94.6667V16.9668H80V17.9668ZM109.333 17.9668H124V16.9668H109.333V17.9668ZM138.667 17.9668H153.333V16.9668H138.667V17.9668ZM168 17.9668H182.667V16.9668H168V17.9668ZM197.333 17.9668H212V16.9668H197.333V17.9668ZM226.667 17.9668H241.333V16.9668H226.667V17.9668ZM256 17.9668H270.667V16.9668H256V17.9668ZM285.333 17.9668H300V16.9668H285.333V17.9668ZM314.667 17.9668H322V16.9668H314.667V17.9668ZM322 17.9668C325.223 17.9668 328.167 17.9668 330.864 17.996L330.875 16.9961C328.171 16.9668 325.221 16.9668 322 16.9668V17.9668ZM348.343 19.5706C351.43 20.4189 353.821 21.711 355.789 23.6782L356.496 22.9711C354.383 20.8582 351.828 19.4911 348.608 18.6063L348.343 19.5706ZM355.789 23.6782C357.756 25.6455 359.048 28.0366 359.896 31.1238L360.86 30.8588C359.976 27.639 358.609 25.084 356.496 22.9711L355.789 23.6782ZM361.471 48.6027C361.5 51.3002 361.5 54.2441 361.5 57.4668H362.5C362.5 54.2454 362.5 51.2958 362.471 48.5919L361.471 48.6027ZM361.5 57.4668V64.9061H362.5V57.4668H361.5ZM361.5 79.7847V94.6633H362.5V79.7847H361.5ZM361.5 109.542V124.421H362.5V109.542H361.5ZM361.5 139.299V154.178H362.5V139.299H361.5ZM361.5 169.056V183.935H362.5V169.056H361.5ZM361.5 198.814V213.692H362.5V198.814H361.5ZM361.5 228.571V243.45H362.5V228.571H361.5ZM361.5 258.328V273.207H362.5V258.328H361.5ZM361.5 288.085V302.964H362.5V288.085H361.5ZM361.5 317.843V332.721H362.5V317.843H361.5ZM361.5 347.6V362.479H362.5V347.6H361.5ZM361.5 377.357V392.236H362.5V377.357H361.5ZM361.5 407.114V421.993H362.5V407.114H361.5ZM361.5 436.872V451.75H362.5V436.872H361.5ZM361.5 466.629V481.508H362.5V466.629H361.5ZM361.5 496.386V511.265H362.5V496.386H361.5ZM361.5 526.143V541.022H362.5V526.143H361.5ZM361.5 555.901V570.779H362.5V555.901H361.5ZM361.5 585.658V600.537H362.5V585.658H361.5ZM361.5 615.415V622.854H362.5V615.415H361.5ZM361.5 622.854C361.5 626.077 361.5 629.021 361.471 631.719L362.471 631.729C362.5 629.025 362.5 626.076 362.5 622.854H361.5ZM359.896 649.197C359.048 652.285 357.756 654.676 355.789 656.643L356.496 657.35C358.609 655.237 359.976 652.682 360.86 649.462L359.896 649.197ZM355.789 656.643C353.821 658.61 351.43 659.902 348.343 660.751L348.608 661.715C351.828 660.83 354.383 659.463 356.496 657.35L355.789 656.643ZM330.864 662.325C328.167 662.354 325.223 662.354 322 662.354V663.354C325.221 663.354 328.171 663.354 330.875 663.325L330.864 662.325ZM322 662.354H314.667V663.354H322V662.354ZM300 662.354H285.333V663.354H300V662.354ZM270.667 662.354H256V663.354H270.667V662.354ZM241.333 662.354H226.667V663.354H241.333V662.354ZM212 662.354H197.333V663.354H212V662.354ZM182.667 662.354H168V663.354H182.667V662.354ZM153.333 662.354H138.667V663.354H153.333V662.354ZM124 662.354H109.333V663.354H124V662.354ZM94.6666 662.354H80V663.354H94.6666V662.354ZM65.3333 662.354H58V663.354H65.3333V662.354ZM23.8579 656.997L24.565 656.289L23.8579 656.997ZM356.142 656.997L356.849 657.704L356.142 656.997ZM356.142 23.3247L355.435 24.0318L356.142 23.3247ZM58 661.854C54.7766 661.854 51.8355 661.854 49.1413 661.825L49.1197 663.825C51.8268 663.854 54.7793 663.854 58 663.854V661.854ZM31.7895 660.268C28.7686 659.438 26.4594 658.184 24.565 656.289L23.1508 657.704C25.3364 659.889 27.9733 661.294 31.2595 662.197L31.7895 660.268ZM24.565 656.289C22.6705 654.395 21.416 652.086 20.5859 649.065L18.6574 649.595C19.5604 652.881 20.9651 655.518 23.1508 657.704L24.565 656.289ZM19.0292 631.713C19 629.019 19 626.078 19 622.854H17C17 626.075 17 629.028 17.0293 631.735L19.0292 631.713ZM19 622.854V615.415H17V622.854H19ZM19 600.536V585.658H17V600.536H19ZM19 570.779V555.901H17V570.779H19ZM19 541.022V526.143H17V541.022H19ZM19 511.265V496.386H17V511.265H19ZM19 481.508V466.629H17V481.508H19ZM19 451.75V436.872H17V451.75H19ZM19 421.993V407.114H17V421.993H19ZM19 392.236V377.357H17V392.236H19ZM19 362.479V347.6H17V362.479H19ZM19 332.721V317.843H17V332.721H19ZM19 302.964V288.085H17V302.964H19ZM19 273.207V258.328H17V273.207H19ZM19 243.45V228.571H17V243.45H19ZM19 213.692V198.814H17V213.692H19ZM19 183.935V169.056H17V183.935H19ZM19 154.178V139.299H17V154.178H19ZM19 124.42V109.542H17V124.42H19ZM19 94.6633V79.7847H17V94.6633H19ZM19 64.9061V57.4669H17V64.9061H19ZM19 57.4669C19 54.2434 19 51.3024 19.0292 48.6081L17.0293 48.5865C17 51.2937 17 54.2462 17 57.4669H19ZM20.5859 31.2563C21.416 28.2355 22.6705 25.9262 24.565 24.0318L23.1508 22.6176C20.9651 24.8032 19.5604 27.4401 18.6574 30.7264L20.5859 31.2563ZM24.565 24.0318C26.4594 22.1373 28.7686 20.8828 31.7895 20.0527L31.2595 18.1242C27.9733 19.0272 25.3364 20.4319 23.1508 22.6176L24.565 24.0318ZM49.1413 18.496C51.8355 18.4668 54.7766 18.4668 58 18.4668V16.4668C54.7793 16.4668 51.8268 16.4668 49.1197 16.4961L49.1413 18.496ZM58 18.4668H65.3333V16.4668H58V18.4668ZM80 18.4668H94.6667V16.4668H80V18.4668ZM109.333 18.4668H124V16.4668H109.333V18.4668ZM138.667 18.4668H153.333V16.4668H138.667V18.4668ZM168 18.4668H182.667V16.4668H168V18.4668ZM197.333 18.4668H212V16.4668H197.333V18.4668ZM226.667 18.4668H241.333V16.4668H226.667V18.4668ZM256 18.4668H270.667V16.4668H256V18.4668ZM285.333 18.4668H300V16.4668H285.333V18.4668ZM314.667 18.4668H322V16.4668H314.667V18.4668ZM322 18.4668C325.223 18.4668 328.164 18.4668 330.859 18.496L330.88 16.4961C328.173 16.4668 325.221 16.4668 322 16.4668V18.4668ZM348.211 20.0527C351.231 20.8828 353.541 22.1373 355.435 24.0318L356.849 22.6176C354.664 20.4319 352.027 19.0272 348.74 18.1242L348.211 20.0527ZM355.435 24.0318C357.329 25.9262 358.584 28.2354 359.414 31.2563L361.343 30.7263C360.44 27.4401 359.035 24.8032 356.849 22.6176L355.435 24.0318ZM360.971 48.6081C361 51.3023 361 54.2434 361 57.4668H363C363 54.2461 363 51.2936 362.971 48.5865L360.971 48.6081ZM361 57.4668V64.9061H363V57.4668H361ZM361 79.7847V94.6633H363V79.7847H361ZM361 109.542V124.421H363V109.542H361ZM361 139.299V154.178H363V139.299H361ZM361 169.056V183.935H363V169.056H361ZM361 198.814V213.692H363V198.814H361ZM361 228.571V243.45H363V228.571H361ZM361 258.328V273.207H363V258.328H361ZM361 288.085V302.964H363V288.085H361ZM361 317.843V332.721H363V317.843H361ZM361 347.6V362.479H363V347.6H361ZM361 377.357V392.236H363V377.357H361ZM361 407.114V421.993H363V407.114H361ZM361 436.872V451.75H363V436.872H361ZM361 466.629V481.508H363V466.629H361ZM361 496.386V511.265H363V496.386H361ZM361 526.143V541.022H363V526.143H361ZM361 555.901V570.779H363V555.901H361ZM361 585.658V600.537H363V585.658H361ZM361 615.415V622.854H363V615.415H361ZM361 622.854C361 626.078 361 629.019 360.971 631.713L362.971 631.735C363 629.028 363 626.075 363 622.854H361ZM359.414 649.065C358.584 652.086 357.329 654.395 355.435 656.289L356.849 657.704C359.035 655.518 360.44 652.881 361.343 649.595L359.414 649.065ZM355.435 656.289C353.541 658.184 351.231 659.438 348.211 660.268L348.74 662.197C352.027 661.294 354.664 659.889 356.849 657.704L355.435 656.289ZM330.859 661.825C328.164 661.854 325.223 661.854 322 661.854V663.854C325.221 663.854 328.173 663.854 330.88 663.825L330.859 661.825ZM322 661.854H314.667V663.854H322V661.854ZM300 661.854H285.333V663.854H300V661.854ZM270.667 661.854H256V663.854H270.667V661.854ZM241.333 661.854H226.667V663.854H241.333V661.854ZM212 661.854H197.333V663.854H212V661.854ZM182.667 661.854H168V663.854H182.667V661.854ZM153.333 661.854H138.667V663.854H153.333V661.854ZM124 661.854H109.333V663.854H124V661.854ZM94.6666 661.854H80V663.854H94.6666V661.854ZM65.3333 661.854H58V663.854H65.3333V661.854Z" fill="url(#paint0_linear_4111_64)" mask="url(#path-2-inside-1_4111_64)"/>
</g>
<defs>
<linearGradient id="paint0_linear_4111_64" x1="63.1971" y1="91.0813" x2="402.811" y2="323.044" gradientUnits="userSpaceOnUse">
<stop stop-color="#818EB3"/>
<stop offset="1" stop-color="#121929"/>
</linearGradient>
</defs>
</svg>
