<?xml version="1.0" encoding="utf-8"?>
<!-- Generator: Adobe Illustrator 25.4.1, SVG Export Plug-In . SVG Version: 6.00 Build 0)  -->
<svg version="1.1" id="Layer_1" xmlns="http://www.w3.org/2000/svg" xmlns:xlink="http://www.w3.org/1999/xlink" x="0px" y="0px"
	 viewBox="0 0 80 80" style="enable-background:new 0 0 80 80;" xml:space="preserve">
<style type="text/css">
	.st0{fill-rule:evenodd;clip-rule:evenodd;fill:#0A48EC;}
</style>
<path class="st0" d="M48.1,15.3c-5.2,0.5-10,4-12.2,8.9c-1,2.2-1.3,3.5-1.3,6.3c0,1.4,0.1,2.9,0.2,3.3l0.2,0.8l-10,10l-10,10
	l-0.1,4.5c-0.1,5.6,0,5.8,1.6,6c0.2,0,2.2,0,4.6,0c4.3,0,4.3,0,4.8-0.5c0.5-0.5,0.5-0.6,0.5-2.7v-2.3h2.3c2.1,0,2.3,0,2.7-0.5
	c0.5-0.5,0.5-0.6,0.5-2.7v-2.3l2.4-0.1c3.1-0.1,3.1-0.1,3.1-3.2v-2.2l2.4-0.1l2.4-0.1l1.7-1.7l1.7-1.7l1.4,0.3
	C54.9,47,62.5,42,64.6,33.9c0.5-2.1,0.5-5.3,0-7.3C62.7,19.3,55.7,14.5,48.1,15.3z M55.5,23.6c2,1.2,2.3,3.7,0.7,5.3
	c-1.5,1.5-3.3,1.5-4.8,0c-1.4-1.4-1.5-3.2-0.2-4.6C52.4,22.9,54,22.7,55.5,23.6z"/>
</svg>
