<?xml version="1.0" encoding="utf-8"?>
<!-- Generator: Adobe Illustrator 25.4.1, SVG Export Plug-In . SVG Version: 6.00 Build 0)  -->
<svg version="1.1" id="Layer_1" xmlns="http://www.w3.org/2000/svg" xmlns:xlink="http://www.w3.org/1999/xlink" x="0px" y="0px"
	 viewBox="0 0 80 80" style="enable-background:new 0 0 80 80;" xml:space="preserve">
<style type="text/css">
	.st0{fill-rule:evenodd;clip-rule:evenodd;fill:#FFFFFF;}
</style>
<path class="st0" d="M39.4,15.4c-1.5,0.5-2,1.6-2,4.5l0,1.8h-7.1c-3.9,0-7.1,0-7.1,0.1c0,0-0.9,2.5-2,5.5c-1.1,3-2,5.5-2,5.5
	c0,0,0.6,0.1,1.4,0.1h1.4l0.9-2.6c0.5-1.4,1-2.7,1.1-2.7c0.1-0.1,0.6,1.1,1.1,2.5l1,2.7l1.4,0.1c0.8,0,1.4,0,1.4-0.1
	c0-0.1-0.6-1.9-1.4-4c-0.8-2.1-1.4-3.9-1.4-4c0-0.1,2-0.2,5.6-0.1l5.6,0.1l0,12.9l0,12.9h2.9h2.9v-13v-13h5.6c3.4,0,5.6,0.1,5.6,0.2
	c0,0.1-0.6,1.9-1.4,4c-0.8,2.1-1.4,3.9-1.4,4c0,0.1,0.6,0.2,1.4,0.1l1.4-0.1l1-2.7c0.5-1.5,1-2.6,1.1-2.6c0.1,0,0.6,1.3,1.1,2.7
	l0.9,2.6H60c0.8,0,1.4,0,1.4-0.1c0,0-0.9-2.5-2-5.5c-1.1-3-2-5.5-2-5.5c0,0-3.2-0.1-7.1-0.1h-7.1l-0.1-2.3c-0.1-2-0.1-2.4-0.5-2.9
	C41.9,15.4,40.7,15,39.4,15.4z M15.4,37.2c0.2,1.8,0.6,3.1,1.4,4.4c1.8,2.8,4.5,4.1,7.9,3.9c1.5-0.1,1.9-0.2,3.1-0.8
	c3-1.5,5-4.6,5-7.8V36h-8.8h-8.8L15.4,37.2z M47.7,36.9c0,2.3,1,4.5,2.8,6.2c1.6,1.6,3.3,2.3,5.5,2.4c4.7,0.2,8.5-2.9,9.1-7.5
	c0.1-0.7,0.2-1.5,0.2-1.7c0-0.3-0.5-0.3-8.8-0.3h-8.8V36.9z M26.3,55.5v2.1h14.1h14.1v-2.1v-2.1H40.3H26.3V55.5z M23.3,62.9V65h17
	h17v-2.1v-2.1h-17h-17V62.9z"/>
</svg>
