<?xml version="1.0" encoding="utf-8"?>
<!-- Generator: Adobe Illustrator 25.4.1, SVG Export Plug-In . SVG Version: 6.00 Build 0)  -->
<svg version="1.1" id="Layer_1" xmlns="http://www.w3.org/2000/svg" xmlns:xlink="http://www.w3.org/1999/xlink" x="0px" y="0px"
	 viewBox="0 0 80 80" style="enable-background:new 0 0 80 80;" xml:space="preserve">
<style type="text/css">
	.st0{fill-rule:evenodd;clip-rule:evenodd;fill:#FFFFFF;}
</style>
<path class="st0" d="M24.9,16.8c-3.1,0.8-4.6,2.7-4.4,5.4c0.1,1.4,0.8,2.8,2.1,4.2c1.2,1.3,2.1,2,4.2,3l1.5,0.8l-4.4,0
	c-4.2,0-5.8,0.2-5.5,0.6c0.1,0.1,0,0.1-0.2,0.1c-0.3-0.1-1.3,0.9-1.2,1.3c0,0.1-0.1,0.2-0.2,0.3c-0.2,0.1-0.2,0.9-0.2,3.5
	c0,3.8,0.1,4.1,1.4,5.2l0.7,0.6l9.9,0.1l9.9,0.1V37v-4.9H40h1.5V37v4.9h9.7c9.5,0,9.7,0,10.5-0.4c0.6-0.3,1-0.6,1.3-1.2
	c0.5-0.8,0.5-0.9,0.5-4.2c0-3.5-0.1-3.9-1-4.8c-1-0.9-1.5-1-6.3-1l-4.5,0l1.5-0.8c0.8-0.4,1.9-1,2.3-1.4c1.2-0.9,2.8-2.6,3.4-3.9
	c0.4-0.9,0.5-1.3,0.5-2.5c0-1.3-0.1-1.6-0.5-2.3c-1-1.7-3-2.7-5.8-2.8c-3.5-0.2-6.7,1-9.2,3.4c-0.8,0.8-1.3,1.4-1.2,1.5
	c0.1,0.1,0,0.2-0.1,0.1c-0.2-0.1-1.5,1.8-2.2,3.2L40,25.7l-0.5-1c-0.9-1.8-2.1-3.4-3.4-4.7C33.2,17.1,28.7,15.8,24.9,16.8z
	 M29.7,19.5c3.3,0.7,5.8,3.1,7.6,7.2c0.3,0.8,0.7,1.7,0.8,2.1l0.1,0.6l-1.5-0.1c-6.6-0.6-11.5-2.9-13.2-6.2
	C22.2,20.4,25.3,18.6,29.7,19.5z M55.1,19.7c2.8,1.1,2,3.9-1.7,6.5c-1.9,1.3-5.7,2.5-9.1,2.9c-2.4,0.3-2.5,0.3-2.3-0.4
	c0.1-0.3,0.3-1.1,0.6-1.8c1.6-4,4.3-6.6,7.7-7.5C51.4,19.2,54,19.3,55.1,19.7z M20.5,52.8c0,5.1,0.1,8.1,0.2,8.4
	c0.2,0.6,1,1.5,1.7,1.9c0.5,0.3,1.5,0.3,8.3,0.4l7.8,0.1v-9.3v-9.3h-9h-9V52.8z M41.5,54.2v9.3l7.8-0.1l7.8-0.1l0.9-0.5
	c0.6-0.3,1-0.7,1.2-1.3c0.4-0.8,0.4-1,0.4-8.7v-7.9h-9h-9V54.2z"/>
</svg>
