<?xml version="1.0" encoding="utf-8"?>
<!-- Generator: Adobe Illustrator 25.4.1, SVG Export Plug-In . SVG Version: 6.00 Build 0)  -->
<svg version="1.1" id="Layer_1" xmlns="http://www.w3.org/2000/svg" xmlns:xlink="http://www.w3.org/1999/xlink" x="0px" y="0px"
	 viewBox="0 0 80 80" style="enable-background:new 0 0 80 80;" xml:space="preserve">
<style type="text/css">
	.st0{fill-rule:evenodd;clip-rule:evenodd;fill:#FFFFFF;}
</style>
<path class="st0" d="M29.4,19.3l-10.3,3.8L19,31.3c-0.1,8.8,0.1,12,0.8,14.9C21.2,51.4,25,56.6,30.2,60c2.2,1.5,6.1,3.4,8.3,4
	l1.5,0.5l1.5-0.5c2.2-0.7,6-2.6,8.3-4c2.3-1.5,5.1-4.2,6.7-6.2c1.5-1.9,3.1-5.4,3.7-7.6c0.7-2.8,0.9-5.4,0.9-14.6l0-8.5l-0.6-0.2
	c-0.3-0.1-3.8-1.4-7.7-2.8c-3.9-1.4-8.3-3-9.9-3.6c-1.5-0.6-2.8-1-3-1C39.8,15.5,35,17.2,29.4,19.3z M44.1,41.8l-7.7,7.7l-4.2-4.2
	l-4.2-4.2l1.3-1.3l1.3-1.3l2.9,2.9l2.9,2.9l6.4-6.4l6.4-6.4l1.3,1.3l1.3,1.3L44.1,41.8z"/>
</svg>
