<svg width="62" height="94" viewBox="0 0 62 94" fill="none" xmlns="http://www.w3.org/2000/svg">
<path d="M0.000182713 91.9996L11.4487 93.5048L7.02796 82.8375L0.000182713 91.9996ZM36.1455 2.4349C37.6427 3.0039 39.0611 3.6012 40.4026 4.22483L41.2457 2.41123C39.8582 1.76624 38.3955 1.15043 36.8559 0.565348L36.1455 2.4349ZM48.3407 8.83066C51.0137 10.7785 53.1758 12.8796 54.8716 15.0979L56.4605 13.8833C54.6357 11.4962 52.3304 9.26326 49.5185 7.21428L48.3407 8.83066ZM58.916 23.0659C59.73 25.9168 59.9893 28.9038 59.7386 31.9838L61.7321 32.1461C62.0005 28.8482 61.7247 25.6186 60.8392 22.5169L58.916 23.0659ZM57.7326 40.8309C56.7384 43.5688 55.4043 46.3396 53.7592 49.1119L55.4791 50.1326C57.1798 47.2666 58.5706 44.383 59.6125 41.5136L57.7326 40.8309ZM48.5023 56.6792C46.6441 59.0132 44.5837 61.3238 42.3412 63.5911L43.7631 64.9975C46.0524 62.683 48.161 60.319 50.067 57.9249L48.5023 56.6792ZM35.5185 69.8812C33.2 71.838 30.7498 73.7433 28.183 75.5827L29.348 77.2084C31.9564 75.3392 34.4484 73.4015 36.8084 71.4096L35.5185 69.8812ZM20.4311 80.7161C17.8161 82.315 15.1114 83.8427 12.3299 85.2872L13.2517 87.0621C16.0744 85.5962 18.8196 84.0457 21.4744 82.4224L20.4311 80.7161Z" fill="url(#paint0_linear_3376_635)"/>
<defs>
<linearGradient id="paint0_linear_3376_635" x1="36.343" y1="13.5109" x2="67.0176" y2="50.3132" gradientUnits="userSpaceOnUse">
<stop stop-color="#818EB3"/>
<stop offset="1" stop-color="#121929"/>
</linearGradient>
</defs>
</svg>
