<?xml version="1.0" encoding="utf-8"?>
<!-- Generator: Adobe Illustrator 25.4.1, SVG Export Plug-In . SVG Version: 6.00 Build 0)  -->
<svg version="1.1" id="Layer_1" xmlns="http://www.w3.org/2000/svg" xmlns:xlink="http://www.w3.org/1999/xlink" x="0px" y="0px"
	 viewBox="0 0 80 80" style="enable-background:new 0 0 80 80;" xml:space="preserve">
<style type="text/css">
	.st0{fill-rule:evenodd;clip-rule:evenodd;fill:#FFFFFF;}
</style>
<g>
	<path class="st0" d="M1,5.1C0.6,5.3,0.3,5.6,0.2,5.9C0,6.2,0,7.2,0,39.9s0,33.7,0.3,34.1c0.2,0.3,0.5,0.6,0.8,0.8
		C1.4,75,2.6,75,39.9,75s38.5,0,38.9-0.3c0.3-0.2,0.6-0.5,0.8-0.8c0.2-0.3,0.2-1.3,0.2-34s0-33.7-0.3-34.1c-0.5-0.8-1.1-1-2.1-1
		c-1,0-1.6,0.3-2.1,1C75,6.1,75,6.6,75,9.3c0,1.8,0,3,0,3s-0.6-0.3-1.4-0.8c-2.4-1.6-3.8-2.1-5.9-1.9c-1.3,0-1.6,0.2-2.6,0.6
		c-0.6,0.3-1.9,1.1-2.7,1.8c-3.7,2.7-3.7,2.7-7.3,0c-1-0.6-2.1-1.4-2.7-1.8c-1-0.5-1.3-0.6-2.6-0.6c-2.2-0.2-3.4,0.3-6.4,2.6
		c-3.4,2.6-3.4,2.6-6.7,0c-3-2.2-4.1-2.7-6.4-2.6c-1.3,0-1.6,0.2-2.6,0.6c-0.6,0.3-1.9,1.1-2.7,1.8c-3.7,2.7-3.7,2.7-7.3,0
		c-1-0.6-2.1-1.4-2.7-1.8c-1-0.5-1.3-0.6-2.6-0.6c-2.1-0.2-3.5,0.3-5.9,1.9c-0.6,0.5-1.3,0.8-1.4,0.8s0-1.4,0-3c0-2.7,0-3.2-0.3-3.5
		c-0.5-0.8-1.1-1-2.1-1C1.8,4.8,1.3,5,1,5.1z M44.2,27c1.8,1.8,3.4,3.4,3.5,3.7c0.6,1.1,0,2.7-1.3,3c-1,0.3-1.6,0-2.9-1.3l-1.3-1.1
		v14v14l1.1-1c1.3-1.3,1.6-1.4,2.4-1.4c0.8,0,1.6,0.5,1.9,1.1c0.3,0.6,0.3,1.6,0,2.2c-0.2,0.2-1.6,1.8-3.4,3.5
		c-4.5,4.5-4,4.5-8.6-0.2c-2.2-2.2-3.4-3.5-3.5-3.8c-0.5-1.4,0.6-2.9,2.1-2.9c0.8,0,1.1,0.2,2.2,1.4l1.1,1V45.5V31.6l-1.1,1
		c-1.4,1.4-2.1,1.6-3.4,1c-1-0.5-1.4-1.8-1.1-2.7c0.2-0.5,5.9-6.2,6.5-6.7c0.3-0.2,0.8-0.3,1.3-0.3h0.8L44.2,27z"/>
</g>
</svg>
