<svg width="380" height="713" viewBox="0 0 380 713" fill="none" xmlns="http://www.w3.org/2000/svg">
<path fill-rule="evenodd" clip-rule="evenodd" d="M281.714 5.05592L337.136 1.07712C357.214 -0.364304 367.253 -1.08502 373.626 4.84742C380 10.7799 380 20.8447 380 40.9745V673C380 691.856 380 701.284 374.142 707.142C368.284 713 358.856 713 340 713H40C21.1438 713 11.7157 713 5.85785 707.142C0 701.284 0 691.856 0 673V62.5118C0 44.8563 0 36.0286 5.36029 30.2697C10.7206 24.5108 19.5256 23.8787 37.1358 22.6144L241.625 7.93393L256.695 23.0037C258.648 24.9563 261.813 24.9563 263.766 23.0037L281.714 5.05592Z" fill="#F8F8F8"/>
<g opacity="0.35">
<mask id="path-2-inside-1_4111_65" fill="white">
<path fill-rule="evenodd" clip-rule="evenodd" d="M286.227 24.5361L319.085 22.1354C339.185 20.6669 349.234 19.9326 355.617 25.8662C362 31.7997 362 41.8762 362 62.0291V653C362 671.856 362 681.284 356.142 687.142C350.284 693 340.856 693 322 693H58C39.1438 693 29.7157 693 23.8578 687.142C18 681.284 18 671.856 18 653V81.3174C18 63.6826 18 54.8652 23.3517 49.1082C28.7033 43.3513 37.4973 42.7088 55.0853 41.4238L234.934 28.2836L255.185 48.6111C257.134 50.5674 260.294 50.5674 262.243 48.6111L286.227 24.5361Z"/>
</mask>
<path d="M319.085 22.1354L319.122 22.6341L319.085 22.1354ZM286.227 24.5361L285.873 24.1832L286.004 24.051L286.191 24.0374L286.227 24.5361ZM355.617 25.8662L355.958 25.5L355.617 25.8662ZM356.142 687.142L355.789 686.789H355.789L356.142 687.142ZM23.8578 687.142L24.2114 686.789L23.8578 687.142ZM23.3517 49.1082L23.7179 49.4487V49.4487L23.3517 49.1082ZM55.0853 41.4238L55.1217 41.9225L55.0853 41.4238ZM234.934 28.2836L234.898 27.785L235.127 27.7683L235.288 27.9308L234.934 28.2836ZM255.185 48.6111L255.539 48.2582H255.539L255.185 48.6111ZM262.243 48.6111L262.597 48.964L262.243 48.6111ZM319.049 21.6367C322.46 21.3875 325.585 21.1592 328.452 20.9811L328.514 21.9791C325.653 22.1569 322.534 22.3848 319.122 22.6341L319.049 21.6367ZM347.354 21.334C350.849 22.0442 353.634 23.3403 355.958 25.5L355.277 26.2324C353.115 24.2226 350.509 22.9955 347.155 22.3139L347.354 21.334ZM355.958 25.5C358.281 27.6596 359.776 30.3427 360.739 33.7769L359.777 34.0469C358.852 30.7514 357.439 28.2422 355.277 26.2324L355.958 25.5ZM362.469 52.6033C362.5 55.4757 362.5 58.609 362.5 62.0291H361.5C361.5 58.6076 361.5 55.4801 361.469 52.6142L362.469 52.6033ZM362.5 62.0291V69.4162H361.5V62.0291H362.5ZM362.5 84.1905V98.9647H361.5V84.1905H362.5ZM362.5 113.739V128.513H361.5V113.739H362.5ZM362.5 143.288V158.062H361.5V143.288H362.5ZM362.5 172.836V187.61H361.5V172.836H362.5ZM362.5 202.385V217.159H361.5V202.385H362.5ZM362.5 231.933V246.707H361.5V231.933H362.5ZM362.5 261.482V276.256H361.5V261.482H362.5ZM362.5 291.03V305.805H361.5V291.03H362.5ZM362.5 320.579V335.353H361.5V320.579H362.5ZM362.5 350.127V364.902H361.5V350.127H362.5ZM362.5 379.676V394.45H361.5V379.676H362.5ZM362.5 409.224V423.999H361.5V409.224H362.5ZM362.5 438.773V453.547H361.5V438.773H362.5ZM362.5 468.321V483.096H361.5V468.321H362.5ZM362.5 497.87V512.644H361.5V497.87H362.5ZM362.5 527.418V542.193H361.5V527.418H362.5ZM362.5 556.967V571.741H361.5V556.967H362.5ZM362.5 586.516V601.29H361.5V586.516H362.5ZM362.5 616.064V630.838H361.5V616.064H362.5ZM362.5 645.613V653H361.5V645.613H362.5ZM362.5 653C362.5 656.221 362.5 659.171 362.471 661.875L361.471 661.864C361.5 659.167 361.5 656.223 361.5 653H362.5ZM360.86 679.608C359.976 682.828 358.609 685.383 356.496 687.496L355.789 686.789C357.756 684.821 359.048 682.43 359.896 679.343L360.86 679.608ZM356.496 687.496C354.383 689.609 351.828 690.976 348.608 691.86L348.343 690.896C351.43 690.048 353.821 688.756 355.789 686.789L356.496 687.496ZM330.875 693.471C328.171 693.5 325.221 693.5 322 693.5V692.5C325.223 692.5 328.167 692.5 330.864 692.471L330.875 693.471ZM322 693.5H314.667V692.5H322V693.5ZM300 693.5H285.333V692.5H300V693.5ZM270.667 693.5H256V692.5H270.667V693.5ZM241.333 693.5H226.667V692.5H241.333V693.5ZM212 693.5H197.333V692.5H212V693.5ZM182.667 693.5H168V692.5H182.667V693.5ZM153.333 693.5H138.667V692.5H153.333V693.5ZM124 693.5H109.333V692.5H124V693.5ZM94.6666 693.5H80V692.5H94.6666V693.5ZM65.3333 693.5H58V692.5H65.3333V693.5ZM58 693.5C54.7786 693.5 51.829 693.5 49.1251 693.471L49.1359 692.471C51.8334 692.5 54.7773 692.5 58 692.5V693.5ZM31.392 691.86C28.1721 690.976 25.6172 689.609 23.5043 687.496L24.2114 686.789C26.1786 688.756 28.5698 690.048 31.657 690.896L31.392 691.86ZM23.5043 687.496C21.3914 685.383 20.0243 682.828 19.1395 679.608L20.1038 679.343C20.9521 682.43 22.2442 684.821 24.2114 686.789L23.5043 687.496ZM17.5293 661.875C17.5 659.171 17.5 656.221 17.5 653H18.5C18.5 656.223 18.5 659.167 18.5292 661.864L17.5293 661.875ZM17.5 653V645.478H18.5V653H17.5ZM17.5 630.434V615.389H18.5V630.434H17.5ZM17.5 600.345V585.301H18.5V600.345H17.5ZM17.5 570.256V555.212H18.5V570.256H17.5ZM17.5 540.168V525.124H18.5V540.168H17.5ZM17.5 510.079V495.035H18.5V510.079H17.5ZM17.5 479.991V464.946H18.5V479.991H17.5ZM17.5 449.902V434.858H18.5V449.902H17.5ZM17.5 419.814V404.769H18.5V419.814H17.5ZM17.5 389.725V374.681H18.5V389.725H17.5ZM17.5 359.637V344.592H18.5V359.637H17.5ZM17.5 329.548V314.504H18.5V329.548H17.5ZM17.5 299.459V284.415H18.5V299.459H17.5ZM17.5 269.371V254.327H18.5V269.371H17.5ZM17.5 239.282V224.238H18.5V239.282H17.5ZM17.5 209.194V194.149H18.5V209.194H17.5ZM17.5 179.105V164.061H18.5V179.105H17.5ZM17.5 149.017V133.972H18.5V149.017H17.5ZM17.5 118.928V103.884H18.5V118.928H17.5ZM17.5 88.8396V81.3174H18.5V88.8396H17.5ZM17.5 81.3174C17.5 78.2858 17.5 75.5114 17.5272 72.968L18.5272 72.9787C18.5 75.5157 18.5 78.2844 18.5 81.3174H17.5ZM19.0179 56.2777C19.8269 53.2581 21.0712 50.827 22.9855 48.7678L23.7179 49.4487C21.9348 51.3668 20.759 53.6434 19.9839 56.5365L19.0179 56.2777ZM22.9855 48.7678C24.8997 46.7086 27.2337 45.2905 30.1863 44.2636L30.5148 45.2081C27.6858 46.192 25.501 47.5306 23.7179 49.4487L22.9855 48.7678ZM46.7236 41.5607C49.2582 41.3482 52.0253 41.146 55.0489 40.9251L55.1217 41.9225C52.0968 42.1435 49.3354 42.3452 46.8071 42.5572L46.7236 41.5607ZM55.0489 40.9251L62.5426 40.3776L62.6154 41.3749L55.1217 41.9225L55.0489 40.9251ZM77.53 39.2826L92.5174 38.1876L92.5903 39.1849L77.6028 40.2799L77.53 39.2826ZM107.505 37.0926L122.492 35.9976L122.565 36.9949L107.578 38.0899L107.505 37.0926ZM137.48 34.9025L152.467 33.8075L152.54 34.8049L137.552 35.8999L137.48 34.9025ZM167.454 32.7125L182.442 31.6175L182.515 32.6149L167.527 33.7099L167.454 32.7125ZM197.429 30.5225L212.417 29.4275L212.49 30.4248L197.502 31.5198L197.429 30.5225ZM227.404 28.3325L234.898 27.785L234.971 28.7823L227.477 29.3298L227.404 28.3325ZM235.288 27.9308L240.351 33.0126L239.643 33.7184L234.58 28.6365L235.288 27.9308ZM250.477 43.1764L255.539 48.2582L254.831 48.964L249.768 43.8821L250.477 43.1764ZM255.539 48.2582C257.293 50.0184 260.135 50.0184 261.889 48.2582L262.597 48.964C260.453 51.1165 256.975 51.1165 254.831 48.964L255.539 48.2582ZM261.889 48.2582L267.885 42.2395L268.593 42.9453L262.597 48.964L261.889 48.2582ZM279.877 30.202L285.873 24.1832L286.581 24.889L280.585 30.9077L279.877 30.202ZM286.191 24.0374L294.405 23.4372L294.478 24.4346L286.263 25.0348L286.191 24.0374ZM310.834 22.2369L319.049 21.6367L319.122 22.6341L310.907 23.2342L310.834 22.2369ZM319.085 22.1354L319.158 23.1327L319.085 22.1354ZM286.227 24.5361L285.519 23.8303L285.782 23.5659L286.154 23.5387L286.227 24.5361ZM355.617 25.8662L356.298 25.1338L355.617 25.8662ZM356.142 687.142L355.435 686.435L355.435 686.435L356.142 687.142ZM23.8578 687.142L24.5649 686.435L24.565 686.435L23.8578 687.142ZM23.3517 49.1082L24.0841 49.7891V49.7891L23.3517 49.1082ZM55.0853 41.4238L55.1582 42.4211L55.0853 41.4238ZM234.934 28.2836L234.861 27.2863L235.319 27.2529L235.643 27.5779L234.934 28.2836ZM255.185 48.6111L255.893 47.9054V47.9054L255.185 48.6111ZM262.243 48.6111L262.951 49.3169L262.243 48.6111ZM319.012 21.1381C322.423 20.8889 325.551 20.6604 328.421 20.482L328.545 22.4782C325.688 22.6557 322.571 22.8834 319.158 23.1327L319.012 21.1381ZM347.454 20.844C351.02 21.5685 353.894 22.8991 356.298 25.1338L354.936 26.5986C352.855 24.6638 350.339 23.4711 347.055 22.8039L347.454 20.844ZM356.298 25.1338C358.702 27.3684 360.238 30.1383 361.221 33.6419L359.295 34.1819C358.39 30.9558 357.018 28.5334 354.936 26.5986L356.298 25.1338ZM362.969 52.5979C363 55.4735 363 58.6097 363 62.0291H361C361 58.6069 361 55.4823 360.969 52.6196L362.969 52.5979ZM363 62.0291V69.4162H361V62.0291H363ZM363 84.1905V98.9647H361V84.1905H363ZM363 113.739V128.513H361V113.739H363ZM363 143.288V158.062H361V143.288H363ZM363 172.836V187.61H361V172.836H363ZM363 202.385V217.159H361V202.385H363ZM363 231.933V246.707H361V231.933H363ZM363 261.482V276.256H361V261.482H363ZM363 291.03V305.805H361V291.03H363ZM363 320.579V335.353H361V320.579H363ZM363 350.127V364.902H361V350.127H363ZM363 379.676V394.45H361V379.676H363ZM363 409.224V423.999H361V409.224H363ZM363 438.773V453.547H361V438.773H363ZM363 468.321V483.096H361V468.321H363ZM363 497.87V512.644H361V497.87H363ZM363 527.418V542.193H361V527.418H363ZM363 556.967V571.741H361V556.967H363ZM363 586.516V601.29H361V586.516H363ZM363 616.064V630.838H361V616.064H363ZM363 645.613V653H361V645.613H363ZM363 653C363 656.221 363 659.173 362.971 661.88L360.971 661.859C361 659.164 361 656.223 361 653H363ZM361.343 679.74C360.44 683.027 359.035 685.664 356.849 687.849L355.435 686.435C357.329 684.541 358.584 682.231 359.414 679.21L361.343 679.74ZM356.849 687.849C354.664 690.035 352.027 691.44 348.74 692.343L348.211 690.414C351.231 689.584 353.541 688.329 355.435 686.435L356.849 687.849ZM330.88 693.971C328.173 694 325.221 694 322 694V692C325.223 692 328.164 692 330.859 691.971L330.88 693.971ZM322 694H314.667V692H322V694ZM300 694H285.333V692H300V694ZM270.667 694H256V692H270.667V694ZM241.333 694H226.667V692H241.333V694ZM212 694H197.333V692H212V694ZM182.667 694H168V692H182.667V694ZM153.333 694H138.667V692H153.333V694ZM124 694H109.333V692H124V694ZM94.6666 694H80V692H94.6666V694ZM65.3333 694H58V692H65.3333V694ZM58 694C54.7793 694 51.8268 694 49.1197 693.971L49.1413 691.971C51.8355 692 54.7766 692 58 692V694ZM31.2595 692.343C27.9733 691.44 25.3364 690.035 23.1507 687.849L24.565 686.435C26.4594 688.329 28.7686 689.584 31.7895 690.414L31.2595 692.343ZM23.1508 687.849C20.9651 685.664 19.5604 683.027 18.6574 679.74L20.5859 679.21C21.416 682.231 22.6705 684.541 24.5649 686.435L23.1508 687.849ZM17.0293 661.88C17 659.173 17 656.221 17 653H19C19 656.223 19 659.164 19.0292 661.859L17.0293 661.88ZM17 653V645.478H19V653H17ZM17 630.434V615.389H19V630.434H17ZM17 600.345V585.301H19V600.345H17ZM17 570.256V555.212H19V570.256H17ZM17 540.168V525.124H19V540.168H17ZM17 510.079V495.035H19V510.079H17ZM17 479.991V464.946H19V479.991H17ZM17 449.902V434.858H19V449.902H17ZM17 419.814V404.769H19V419.814H17ZM17 389.725V374.681H19V389.725H17ZM17 359.637V344.592H19V359.637H17ZM17 329.548V314.504H19V329.548H17ZM17 299.459V284.415H19V299.459H17ZM17 269.371V254.327H19V269.371H17ZM17 239.282V224.238H19V239.282H17ZM17 209.194V194.149H19V209.194H17ZM17 179.105V164.061H19V179.105H17ZM17 149.017V133.972H19V149.017H17ZM17 118.928V103.884H19V118.928H17ZM17 88.8396V81.3174H19V88.8396H17ZM17 81.3174C17 78.2865 17 75.5092 17.0273 72.9626L19.0272 72.984C19 75.5178 19 78.2838 19 81.3174H17ZM18.5349 56.1483C19.3609 53.0655 20.6394 50.5571 22.6193 48.4274L24.0841 49.7891C22.3666 51.6366 21.225 53.836 20.4668 56.6659L18.5349 56.1483ZM22.6193 48.4274C24.5991 46.2976 27.0076 44.8397 30.022 43.7913L30.679 45.6803C27.9119 46.6427 25.8016 47.9415 24.0841 49.7891L22.6193 48.4274ZM46.6818 41.0624C49.2196 40.8497 51.9895 40.6473 55.0124 40.4264L55.1582 42.4211C52.1325 42.6422 49.374 42.8437 46.8489 43.0554L46.6818 41.0624ZM55.0124 40.4264L62.5061 39.8789L62.6519 41.8736L55.1582 42.4211L55.0124 40.4264ZM77.4935 38.7839L92.481 37.6889L92.6267 39.6836L77.6393 40.7786L77.4935 38.7839ZM107.468 36.5939L122.456 35.4989L122.602 37.4936L107.614 38.5886L107.468 36.5939ZM137.443 34.4039L152.431 33.3089L152.576 35.3035L137.589 36.3986L137.443 34.4039ZM167.418 32.2139L182.405 31.1188L182.551 33.1135L167.564 34.2085L167.418 32.2139ZM197.393 30.0238L212.38 28.9288L212.526 30.9235L197.539 32.0185L197.393 30.0238ZM227.368 27.8338L234.861 27.2863L235.007 29.281L227.513 29.8285L227.368 27.8338ZM235.643 27.5779L240.705 32.6597L239.288 34.0713L234.226 28.9894L235.643 27.5779ZM250.831 42.8235L255.893 47.9054L254.477 49.3169L249.414 44.235L250.831 42.8235ZM255.893 47.9054C257.452 49.4694 259.976 49.4694 261.534 47.9054L262.951 49.3169C260.611 51.6655 256.816 51.6655 254.477 49.3169L255.893 47.9054ZM261.534 47.9054L267.53 41.8866L268.947 43.2981L262.951 49.3169L261.534 47.9054ZM279.522 29.8491L285.519 23.8303L286.935 25.2419L280.939 31.2606L279.522 29.8491ZM286.154 23.5387L294.369 22.9386L294.514 24.9333L286.3 25.5334L286.154 23.5387ZM310.798 21.7382L319.012 21.1381L319.158 23.1327L310.944 23.7329L310.798 21.7382Z" fill="url(#paint0_linear_4111_65)" mask="url(#path-2-inside-1_4111_65)"/>
</g>
<defs>
<linearGradient id="paint0_linear_4111_65" x1="316.803" y1="97.7424" x2="-31.3784" y2="326.174" gradientUnits="userSpaceOnUse">
<stop stop-color="#818EB3"/>
<stop offset="1" stop-color="#121929"/>
</linearGradient>
</defs>
</svg>
