<?xml version="1.0" encoding="utf-8"?>
<!-- Generator: Adobe Illustrator 28.1.0, SVG Export Plug-In . SVG Version: 6.00 Build 0)  -->
<svg version="1.1" id="Layer_1" xmlns="http://www.w3.org/2000/svg" xmlns:xlink="http://www.w3.org/1999/xlink" x="0px" y="0px"
	 viewBox="0 0 45 44" style="enable-background:new 0 0 45 44;" xml:space="preserve">
<style type="text/css">
	.st0{fill:#0077FF;}
	.st1{fill:#FFFFFF;}
</style>
<circle class="st0" cx="22.5" cy="22" r="21.5"/>
<path class="st1" d="M32.6,30.4H30c-1,0-1.3-1-3-3c-1.5-1.8-2.3-2-2.7-2c-0.5,0-0.7,0.1-0.7,0.9v3c0,0.7-0.2,1.1-1.9,1.1
	c-2.8,0-5.9-1.9-8.3-5.1c-3.3-4.5-3.9-8.4-3.9-9.1c0-0.4,0.1-0.8,0.9-0.8H13c0.7,0,0.9,0.3,1.2,1.1c1.2,3.9,2.9,6.9,3.8,6.9
	c0.3,0,0.5-0.2,0.5-1v-3.6c-0.1-1.9-1-2-1-2.7c0-0.3,0.2-0.6,0.6-0.6h4.6c0.6,0,0.7,0.3,0.7,1v5.2c0,0.6,0.4,0.8,0.6,0.8
	c0.3,0,0.6,0,1.2-0.6c1.9-2.2,3.5-5.6,3.5-5.6c0.2-0.4,0.5-0.8,1.1-0.8h2.6c0.6,0,0.8,0.3,0.9,0.6c0,0.1,0,0.3-0.1,0.4
	c-0.3,1.6-3.7,6.4-3.7,6.4c0.2,0.1,0.1,0.3,0.1,0.5s0.1,0.4,0.2,0.6c0.3,0.4,0.9,1.1,1.5,1.9c1.1,1.3,2,2.8,2.2,3.3
	c0,0.2,0.1,0.3,0.1,0.4C33.6,30.1,33.2,30.4,32.6,30.4z"/>
</svg>
