<?xml version="1.0" encoding="utf-8"?>
<!-- Generator: Adobe Illustrator 25.4.1, SVG Export Plug-In . SVG Version: 6.00 Build 0)  -->
<svg version="1.1" id="Layer_1" xmlns="http://www.w3.org/2000/svg" xmlns:xlink="http://www.w3.org/1999/xlink" x="0px" y="0px"
	 viewBox="0 0 80 80" style="enable-background:new 0 0 80 80;" xml:space="preserve">
<style type="text/css">
	.st0{fill:#0A48EC;}
	.st1{fill:#0A48EC;stroke:#FFFFFF;stroke-width:3;}
</style>
<path class="st0" d="M19.8,18.1h33v8.7H23.2l4.7-2l-2.4,15.1l-2.9,0.1c0.8-1.4,2-2.7,3.4-3.9c1.4-1.2,3.2-2.1,5.3-2.8
	c2.1-0.7,4.5-1.1,7.3-1.1c3.6,0,6.7,0.6,9.3,1.8c2.6,1.2,4.7,2.8,6.1,4.9c1.4,2.1,2.1,4.5,2.1,7.2c0,2.9-0.8,5.5-2.5,7.8
	c-1.6,2.3-4,4-7,5.3c-3,1.3-6.7,1.9-11,1.9c-4.2,0-7.8-0.6-10.9-1.8c-3.1-1.2-5.5-2.9-7.3-5c-1.7-2.1-2.7-4.4-3-7H26
	c0.4,1.5,1.4,2.6,3,3.5c1.7,0.9,3.8,1.3,6.5,1.3c1.9,0,3.5-0.2,4.8-0.7c1.3-0.5,2.3-1.2,3-2.1c0.7-0.9,1.1-2,1.1-3.3
	c0-1.2-0.3-2.3-1-3.2c-0.6-0.9-1.6-1.7-2.9-2.1c-1.3-0.5-2.9-0.8-4.7-0.8c-1.6,0-3,0.2-4.2,0.5c-1.2,0.3-2.3,0.8-3.3,1.3
	c-0.9,0.5-1.7,1.1-2.3,1.7H16.1L19.8,18.1z"/>
<path class="st1" d="M52.1,42.9l3.8-7.7l3.8,7.7c0.3,0.7,1,1.2,1.8,1.3l8.5,1.2l-6.1,6c-0.6,0.5-0.8,1.3-0.7,2.1l1.4,8.4l-7.6-4
	c-0.7-0.4-1.5-0.4-2.2,0l-7.6,4l1.4-8.4c0.1-0.8-0.1-1.5-0.7-2.1l-6.1-6l8.5-1.2C51.1,44.1,51.7,43.6,52.1,42.9z M70.8,44.5
	L70.8,44.5L70.8,44.5z"/>
</svg>
