<?xml version="1.0" encoding="utf-8"?>
<!-- Generator: Adobe Illustrator 25.4.1, SVG Export Plug-In . SVG Version: 6.00 Build 0)  -->
<svg version="1.1" id="Layer_1" xmlns="http://www.w3.org/2000/svg" xmlns:xlink="http://www.w3.org/1999/xlink" x="0px" y="0px"
	 viewBox="0 0 80 80" style="enable-background:new 0 0 80 80;" xml:space="preserve">
<style type="text/css">
	.st0{fill-rule:evenodd;clip-rule:evenodd;fill:#0A48EC;}
</style>
<path class="st0" d="M36.8,17.1c-0.5,0.1-1.2,0.4-1.7,0.6c-1,0.5-23.6,22.6-24.5,23.9c-0.7,1.1-0.9,2.8-0.4,4.1
	c0.1,0.4,3.9,4.3,8.4,8.7c7.4,7.3,8.3,8.1,9.3,8.4c0.9,0.3,1.4,0.3,2.4,0.1c1.2-0.2,1.4-0.4,13.1-11.9c6.5-6.4,12.1-12,12.4-12.6
	l0.6-0.9l2.2,0.4c1.6,0.3,2.8,0.4,4.5,0.4c2.3-0.1,4.4-0.6,4.6-1.1c0-0.1,0.2-0.2,0.4-0.2c0.4,0,1.4-1.3,1.6-2
	C71,31,66.4,26,58.7,22.8c-1.8-0.7-1.9-0.8-2.1-1.6c-0.2-1.5-1.4-3-2.8-3.6c-1.2-0.5-1.5-0.5-8.7-0.6C41.1,17,37.3,17,36.8,17.1z
	 M47.7,23.8c1,0.3,2,1.8,2.3,3.2c0.1,0.7,0.3,1.1,0.8,1.4c0.8,0.6,3.2,1.8,4.8,2.3l1.2,0.5v-2.5c0-1.5,0.1-2.5,0.2-2.5
	c0.5,0,3.1,1.3,4.8,2.4c2.1,1.4,3.7,2.9,4.3,4.2c0.4,0.8,0.4,0.8-0.1,1.3c-1,1-4.7,1-8.6,0c-1.9-0.5-5.6-2.1-7.4-3.3
	c-0.8-0.5-1.2-0.6-1.3-0.5c-0.3,0.4-1.8,1-2.7,1c-1.2,0-2.6-0.8-3.2-1.7c-1.7-2.7,0.2-6.1,3.4-5.9C46.9,23.7,47.6,23.7,47.7,23.8z"
	/>
</svg>
