<?xml version="1.0" encoding="utf-8"?>
<!-- Generator: Adobe Illustrator 25.4.1, SVG Export Plug-In . SVG Version: 6.00 Build 0)  -->
<svg version="1.1" id="Layer_1" xmlns="http://www.w3.org/2000/svg" xmlns:xlink="http://www.w3.org/1999/xlink" x="0px" y="0px"
	 viewBox="0 0 80 80" style="enable-background:new 0 0 80 80;" xml:space="preserve">
<style type="text/css">
	.st0{fill-rule:evenodd;clip-rule:evenodd;fill:#0A48EC;}
</style>
<path class="st0" d="M20.2,25.3c-0.8,0.4-1,1.1-1,2.9l0,1.6l-1.2,0.1c-1,0.1-1.3,0.2-1.6,0.5c-0.5,0.6-0.5,1.2,0,1.8
	c0.4,0.5,0.4,0.5,4.9,0.6c2.5,0.1,4.7,0.2,4.8,0.2c0.4,0.2,0.5,1.2,0.3,1.7c-0.4,0.9-0.8,1-6.1,1c-4.3,0-4.9,0-5.3,0.3
	c-0.6,0.5-0.6,1.6,0,2.1c0.4,0.3,1,0.4,7.7,0.4c6.8,0,7.3,0,7.7,0.4c0.4,0.3,0.5,0.6,0.5,1.2c0,0.6-0.1,0.9-0.5,1.2
	c-0.4,0.4-0.9,0.4-7.7,0.4c-6.7,0-7.3,0-7.7,0.4c-0.6,0.5-0.6,1.6,0,2.1c0.3,0.3,0.8,0.3,2.3,0.3h1.9l0.1,2.6
	c0.1,3.3,0.1,3.4,2.7,3.4h1.7l0.5,1.1c0.5,1.1,1.5,2.3,2.4,2.8c0.8,0.4,1.6,0.6,3,0.6c1.4,0,2.4-0.4,3.6-1.4
	c0.6-0.5,1.6-2.2,1.6-2.8c0-0.3,0.9-0.3,7.8-0.3c6.7,0,7.8,0,7.8,0.3c0,0.4,0.6,1.7,0.8,1.7c0.1,0,0.1,0.1,0.1,0.2
	c-0.1,0.2,0.8,1.1,1.9,1.7c1.3,0.7,2.9,0.9,4.4,0.4c1.4-0.4,3-2,3.5-3.3l0.4-0.9h1.6c1.7,0,2.2-0.3,2.5-1.3c0.1-0.3,0.1-2.7,0.1-5.3
	c-0.1-4.6-0.1-4.9-0.5-5.8c-0.5-1-1.4-1.7-2.8-2.2c-0.7-0.3-2-0.3-7.2-0.3h-6.3l-0.5-0.5l-0.5-0.5v-4.8V25l-13.5,0
	C23.7,25,20.5,25.1,20.2,25.3z M50.9,28.9v3.5h4h4l-0.8-1.2c-1.6-2.6-4.3-4.9-6.5-5.5l-0.7-0.2V28.9z M30.8,47.1
	c0.9,0.5,1.4,1.6,1.2,2.6c-0.3,2.1-2.2,3.1-4.1,2.2c-1-0.5-1.4-1.3-1.4-2.6c0-1,0.1-1.1,0.8-1.8c0.7-0.7,0.9-0.8,1.8-0.8
	C29.8,46.7,30.4,46.8,30.8,47.1z M57.8,47.5c0.6,0.6,0.7,0.9,0.7,1.8c0,1.4-0.7,2.4-1.8,2.8c-2.5,0.7-4.6-1.6-3.5-3.9
	c0.5-1.1,1.3-1.5,2.7-1.4C57.1,46.8,57.2,46.9,57.8,47.5z"/>
</svg>
